{"title":"Fatmagul E119-121 DVDRip GR Subs      [mkv]","uid":8770940,"size":1673042623,"categoryP":"video","categoryS":"tv_shows","magnet":"?xt=urn:btih:f159e2fdd21b19fdce30b15e3a6b212e0b425ce1&amp;dn=Fatmagul+E119-121+DVDRip+GR+Subs++++++%5Bmkv%5D&amp;tr=udp%3A%2F%2Ftracker.openbittorrent.com%3A80&amp;tr=udp%3A%2F%2Fopen.demonii.com%3A1337&amp;tr=udp%3A%2F%2Ftracker.coppersurfer.tk%3A6969&amp;tr=udp%3A%2F%2Fexodus.desync.com%3A6969","seeders":1,"leechers":0,"uploader":"elemental5","files":-1,"time":1375454435,"description":"Neo dvd ari8mos 47. Kalh 8eash!\n\n\n\n\nGeneral\n\nFormat                                   : Matroska\nFormat version                           : Version 1\nFile size                                : 1.56 GiB\nDuration                                 : 2h 28mn\nOverall bit rate mode                    : Variable\nOverall bit rate                         : 1 500 Kbps\nWriting application                      : DivXMKVMux 3.7.0.0073\nWriting library                          : libDivXMediaFormat 3.7.0.0073\n\nVideo\nID                                       : 1\nFormat                                   : AVC\nFormat/Info                              : Advanced Video Codec\nFormat profile                           : &lt;a class=&quot;__cf_email__&quot; href=&quot;/cdn-cgi/l/email-protection&quot; data-cfemail=&quot;e7af8e808fa7abd3c9d7&quot;&gt;[email&amp;#160;protected]&lt;/a&gt;&lt;script cf-hash='f9e31' type=&quot;text/javascript&quot;&gt;\n/* &lt;![CDATA[ */!function(){try{var t=&quot;currentScript&quot;in document?document.currentScript:function(){for(var t=document.getElementsByTagName(&quot;script&quot;),e=t.length;e--;)if(t[e].getAttribute(&quot;cf-hash&quot;))return t[e]}();if(t&amp;&amp;t.previousSibling){var e,r,n,i,c=t.previousSibling,a=c.getAttribute(&quot;data-cfemail&quot;);if(a){for(e=&quot;&quot;,r=parseInt(a.substr(0,2),16),n=2;a.length-n;n+=2)i=parseInt(a.substr(n,2),16)^r,e+=String.fromCharCode(i);e=document.createTextNode(e),c.parentNode.replaceChild(e,c)}}}catch(u){}}();/* ]]&gt; */&lt;/script&gt;\nFormat settings, CABAC                   : Yes\nFormat settings, ReFrames                : 3 frames\nCodec ID                                 : V_MPEG4/ISO/AVC\nDuration                                 : 2h 28mn\nBit rate mode                            : Variable\nBit rate                                 : 1 278 Kbps\nMaximum bit rate                         : 20.0 Mbps\nWidth                                    : 1 024 pixels\nHeight                                   : 576 pixels\nDisplay aspect ratio                     : 16:9\nFrame rate mode                          : Constant\nFrame rate                               : 25.000 fps\nStandard                                 : PAL\nColor space                              : YUV\nChroma subsampling                       : 4:2:0\nBit depth                                : 8 bits\nScan type                                : Progressive\nBits/(Pixel*Frame)                       : 0.087\nStream size                              : 1.33 GiB (85%)\nLanguage                                 : English\nDefault                                  : Yes\nForced                                   : No\nColor primaries                          : BT.709\nTransfer characteristics                 : BT.709\nMatrix coefficients                      : BT.709\n\nAudio\nID                                       : 2\nFormat                                   : AC-3\nFormat/Info                              : Audio Coding 3\nMode extension                           : CM (complete main)\nFormat settings, Endianness              : Big\nCodec ID                                 : A_AC3\nDuration                                 : 2h 28mn\nBit rate mode                            : Constant\nBit rate                                 : 192 Kbps\nChannel(s)                               : 2 channels\nChannel positions                        : Front: L R\nSampling rate                            : 48.0 KHz\nBit depth                                : 16 bits\nCompression mode                         : Lossy\nStream size                              : 204 MiB (13%)\nLanguage                                 : Turkish\nDefault                                  : Yes\nForced                                   : No\n","torrent":{"xt":"urn:btih:f159e2fdd21b19fdce30b15e3a6b212e0b425ce1","amp;dn":"Fatmagul+E119-121+DVDRip+GR+Subs++++++%5Bmkv%5D","amp;tr":["udp%3A%2F%2Ftracker.openbittorrent.com%3A80","udp%3A%2F%2Fopen.demonii.com%3A1337","udp%3A%2F%2Ftracker.coppersurfer.tk%3A6969","udp%3A%2F%2Fexodus.desync.com%3A6969"],"infoHash":"f159e2fdd21b19fdce30b15e3a6b212e0b425ce1","infoHashBuffer":{"type":"Buffer","data":[241,89,226,253,210,27,25,253,206,48,177,94,58,107,33,46,11,66,92,225]},"announce":[],"urlList":[]}}